<?xml version="1.0" standalone="no"?>
<!DOCTYPE svg PUBLIC "-//W3C//DTD SVG 20010904//EN"
 "http://www.w3.org/TR/2001/REC-SVG-20010904/DTD/svg10.dtd">
<svg version="1.0" xmlns="http://www.w3.org/2000/svg"
 width="512.000000pt" height="512.000000pt" viewBox="0 0 512.000000 512.000000"
 preserveAspectRatio="xMidYMid meet">

<g transform="translate(0.000000,512.000000) scale(0.100000,-0.100000)"
fill="#ffffff" stroke="none">
<path d="M2370 5114 c-19 -2 -78 -9 -130 -15 -548 -62 -1083 -325 -1489 -730
-405 -406 -651 -906 -732 -1489 -20 -143 -18 -527 4 -670 89 -580 328 -1058
728 -1459 658 -658 1607 -906 2504 -654 929 260 1646 1042 1819 1987 84 457
46 929 -109 1352 -86 235 -278 577 -401 713 -41 46 -50 51 -88 51 -57 0 -96
-39 -96 -96 0 -33 11 -54 71 -134 82 -110 173 -259 230 -377 69 -144 68 -145
-13 -67 -154 148 -338 276 -556 386 l-133 67 -67 133 c-110 218 -238 402 -386
556 -38 39 -65 72 -60 72 5 0 76 -34 158 -75 82 -41 161 -75 177 -75 15 0 41
12 58 26 26 21 31 33 31 69 0 57 -17 75 -120 131 -253 136 -552 234 -850 279
-100 15 -473 28 -550 19z m327 -205 c348 -47 682 -300 937 -709 36 -58 61
-106 56 -108 -6 -2 -38 6 -72 17 -150 49 -437 106 -673 133 -143 16 -627 16
-770 0 -236 -27 -523 -84 -673 -133 -34 -11 -66 -19 -72 -17 -12 4 100 185
178 288 31 41 98 116 147 166 281 284 606 409 942 363z m-1103 -241 c-148
-154 -276 -338 -386 -556 l-67 -133 -133 -67 c-218 -110 -402 -238 -555 -386
-40 -38 -73 -65 -73 -60 0 23 140 287 201 379 233 354 554 640 927 827 75 37
140 68 146 68 5 0 -22 -33 -60 -72z m1396 -633 c250 -31 430 -72 656 -146 86
-28 164 -59 173 -68 22 -22 111 -289 145 -431 67 -284 91 -501 91 -830 0 -329
-24 -546 -91 -830 -34 -142 -123 -409 -145 -431 -21 -21 -287 -110 -431 -143
-239 -57 -454 -84 -728 -93 -446 -14 -893 56 -1279 200 l-86 32 -32 86 c-85
227 -146 489 -180 759 -24 202 -24 638 0 840 34 270 95 532 180 759 l32 86 86
32 c275 102 614 173 939 197 120 8 550 -3 670 -19z m-1979 -417 c-49 -150
-106 -437 -133 -673 -16 -143 -16 -627 0 -770 27 -236 84 -523 133 -673 11
-34 19 -66 17 -72 -2 -5 -48 18 -103 53 -512 320 -767 740 -717 1182 41 370
287 703 716 972 56 34 102 58 104 53 2 -6 -6 -38 -17 -72z m3249 -23 c456
-295 699 -720 653 -1138 -42 -370 -288 -706 -713 -971 -57 -36 -106 -63 -108
-61 -2 2 8 43 22 92 100 343 140 643 140 1043 0 280 -8 393 -45 620 -22 135
-67 335 -99 438 -11 35 -20 68 -20 74 0 11 32 -7 170 -97z m-3665 -2127 c109
-86 267 -186 413 -260 l133 -67 67 -133 c110 -218 238 -402 386 -556 38 -39
65 -72 60 -72 -23 0 -286 140 -379 202 -280 185 -514 418 -694 693 -61 92
-201 357 -201 379 0 5 33 -22 73 -60 39 -39 104 -95 142 -126z m4087 60 c-191
-387 -480 -713 -837 -947 -93 -61 -357 -201 -379 -201 -5 0 22 33 60 73 148
153 276 337 386 555 l67 133 133 67 c217 110 454 277 582 411 22 22 42 39 44
36 2 -2 -23 -59 -56 -127z m-3181 -518 c631 -194 1416 -198 2082 -9 60 17 111
29 113 27 2 -2 -26 -51 -62 -108 -264 -424 -601 -671 -969 -712 -357 -40 -718
127 -1002 465 -97 116 -256 357 -235 357 6 0 38 -9 73 -20z"/>
<path d="M1513 3082 c-95 -34 -166 -107 -198 -203 -29 -87 8 -154 85 -154 48
0 75 24 105 92 36 80 104 105 173 63 46 -28 68 -82 53 -131 -12 -41 -50 -76
-88 -84 -12 -3 -35 -7 -49 -10 -14 -3 -37 -17 -50 -30 -49 -49 -20 -145 48
-159 12 -3 35 -7 49 -10 40 -9 77 -44 90 -85 30 -100 -86 -187 -177 -132 -32
19 -48 51 -59 113 -7 43 -53 88 -91 88 -33 0 -81 -25 -94 -49 -16 -31 -12
-106 10 -165 27 -72 88 -139 158 -173 48 -24 69 -28 137 -28 102 1 166 27 230
96 107 114 122 267 40 389 l-34 50 34 50 c82 122 67 275 -40 389 -83 88 -220
123 -332 83z"/>
<path d="M2554 3090 c-38 -15 -155 -143 -215 -234 -100 -152 -153 -315 -154
-471 0 -88 3 -107 27 -157 34 -73 103 -142 176 -176 49 -23 70 -27 147 -27 79
1 98 4 149 29 76 37 135 96 172 172 25 52 29 70 29 149 0 77 -4 98 -27 147
-57 123 -161 197 -288 206 -39 2 -70 7 -70 9 0 13 52 76 119 146 70 73 76 81
75 120 -2 71 -72 115 -140 87z m66 -582 c119 -82 75 -266 -68 -285 -122 -16
-216 129 -152 235 44 72 152 96 220 50z"/>
<path d="M3383 3086 c-109 -35 -194 -117 -230 -218 -16 -46 -18 -86 -18 -313
0 -248 1 -263 23 -317 30 -75 101 -150 177 -185 51 -24 73 -28 145 -28 73 0
93 4 142 28 72 35 134 97 167 167 l26 55 0 285 0 285 -26 55 c-32 69 -95 132
-164 165 -65 32 -178 42 -242 21z m157 -204 c19 -9 45 -32 57 -51 22 -33 23
-41 23 -270 0 -216 -2 -239 -20 -268 -41 -68 -121 -91 -187 -53 -75 42 -78 54
-78 320 0 264 3 278 74 319 44 25 85 26 131 3z"/>
<path d="M4130 4523 c-55 -20 -81 -82 -55 -136 30 -63 107 -77 156 -28 33 33
38 75 14 120 -19 38 -75 59 -115 44z"/>
</g>
</svg>
